<svg id="Layer_1" data-name="Layer 1" xmlns="http://www.w3.org/2000/svg" viewBox="0 0 104 34"><defs><style>.cls-1{fill:#018bff;}</style></defs><path d="M20,7.19c-5.56,0-9.29,3.2-9.29,9.5v3.85a4.86,4.86,0,0,1,1.81-.43,3.55,3.55,0,0,1,1.82.43V16.69c0-4.06,2.24-6.19,5.66-6.19s5.66,2.13,5.66,6.19v9.83h3.63V16.69c0-6.3-3.74-9.5-9.29-9.5" transform="translate(-1.01 -0.14)"/><path d="M31.23,17.12c0-5.77,4.16-9.93,10.14-9.93s10,4.16,10,9.93V18.4H35.07a6.06,6.06,0,0,0,6.3,5.23c2.46,0,4.17-.74,5.24-2.35h4a9.66,9.66,0,0,1-9.29,5.77,9.61,9.61,0,0,1-10-9.93M47.67,15.2a6.12,6.12,0,0,0-6.3-4.7,6,6,0,0,0-6.19,4.7Z" transform="translate(-1.01 -0.14)"/><path d="M53.44,17.12c0-5.77,4.17-9.93,10.15-9.93a9.76,9.76,0,0,1,10.14,9.93c0,5.77-4.16,9.93-10.14,9.93s-10.15-4.16-10.15-9.93m16.55,0a6.16,6.16,0,0,0-6.51-6.51A6.28,6.28,0,0,0,57,17.12a6.16,6.16,0,0,0,6.51,6.51c4,.11,6.51-2.67,6.51-6.51" transform="translate(-1.01 -0.14)"/><path d="M94.45,30.36h.43c2.35,0,3.2-1.07,3.2-3.74V8.47h3.63V26.41c0,4.7-1.81,7.05-6.51,7.05h-.75Z" transform="translate(-1.01 -0.14)"/><path d="M92.63,28.33H89V23.85H79.82a4.53,4.53,0,0,1-4.17-2.35,3.93,3.93,0,0,1,.54-4.27L84.41,6.44a4.52,4.52,0,0,1,5.13-1.6,4.45,4.45,0,0,1,3.09,4.27V20.64h2.14v3.21H92.63ZM79.18,19.26a.79.79,0,0,0-.22.53,1,1,0,0,0,1,1H89V9.11c0-.64-.42-.85-.64-.85H88a.93.93,0,0,0-.75.42L79.18,19.26Z" transform="translate(-1.01 -0.14)"/><path class="cls-1" d="M99.9.14A3.1,3.1,0,1,0,103,3.24,3.1,3.1,0,0,0,99.9.14" transform="translate(-1.01 -0.14)"/><path class="cls-1" d="M12.33,21.93a2.51,2.51,0,0,0-1.82.64L7.09,20.32a2.26,2.26,0,0,0,.11-.85,3.1,3.1,0,1,0-3.1,3.1,2.55,2.55,0,0,0,1.82-.64l3.42,2.35a2.26,2.26,0,0,0-.11.85,2.26,2.26,0,0,0,.11.85L5.92,28.33a2.93,2.93,0,0,0-1.82-.64,3.1,3.1,0,1,0,3.1,3.1,2.34,2.34,0,0,0-.11-.86l3.42-2.34a3,3,0,0,0,1.82.64,3.09,3.09,0,0,0,3.09-3.1,3.18,3.18,0,0,0-3.09-3.2" transform="translate(-1.01 -0.14)"/></svg>